Genre:Action | Adventure | Drama | History | Thriller | War 
Language:English
IMDb:http://www.imdb.com/title/tt1020558/
Source Video:TS ELEKTRI4KA
Source Audio:Prism

General
Complete name :Centurion 2010.CAM.XVID.FEEL-FREE
Format : AVI
Format/Info : Audio Video Interleave
File size : 1.54 GiB
Duration : 1h 37mn
Overall bit rate : 2 264 Kbps
Writing library : VirtualDub build 32817/release
Video #0
ID : 0
Format : MPEG-4 Visual
Format profile : AdvancedSimple@L5
Format settings, BVOP : Yes
Format settings, QPel : No
Format settings, GMC : No warppoints
Format settings, Matrix : Custom
Codec ID : XVID
Codec ID/Hint : XviD
Duration : 1h 37mn
Bit rate : 2 127 Kbps
Width : 688 pixels
Height : 288 pixels
Display aspect ratio : 2.35:1
Frame rate : 23.976 fps
Resolution : 24 bits
Colorimetry : 4:2:0
Scan type : Progressive
Bits/(Pixel*Frame) : 0.448
Stream size : 1.44 GiB (94%)
Writing library : XviD 1.2.1 (UTC 2008-12-04)
Audio #1
ID : 1
Format : MPEG Audio
Format version : Version 1
Format profile : Layer 3
Codec ID : 55
Codec ID/Hint : MP3
Duration : 1h 37mn
Bit rate mode : Constant
Bit rate : 128 Kbps
Channel(s) : 2 channels
Sampling rate : 48.0 KHz
Resolution : 16 bits
Stream size : 89.0 MiB (6%)
Alignment : Split accross interleaves
Interleave, duration : 42 ms (1.00 video frame)
Interleave, preload duration : 500 ms

Plot:
A splinter group of Roman soldiers fight for their lives behind enemy lines after their legion is decimated in a devastating guerrilla attack. 
...................................................


Screenshots:
 
http://www.starshare.ro/bitbucket/Centurion%202010.CAM.XVID.FEEL-FREE.avi_thumbs_%5B2010.08.10_09.12.54%5D.jpg
 
http://www.starshare.ro/bitbucket/Centurion%202010.CAM.XVID.FEEL-FREE.avi_snapshot_00.07.10_%5B2010.08.10_09.13.21%5D.jpg
 
http://www.starshare.ro/bitbucket/Centurion%202010.CAM.XVID.FEEL-FREE.avi_snapshot_00.17.48_%5B2010.08.10_09.13.29%5D.jpg
 
http://www.starshare.ro/bitbucket/Centurion%202010.CAM.XVID.FEEL-FREE.avi_snapshot_00.35.02_%5B2010.08.10_09.13.35%5D.jpg
 
http://www.starshare.ro/bitbucket/Centurion%202010.CAM.XVID.FEEL-FREE.avi_snapshot_00.44.57_%5B2010.08.10_09.13.42%5D.jpg
 
http://www.starshare.ro/bitbucket/Centurion%202010.CAM.XVID.FEEL-FREE.avi_snapshot_00.49.16_%5B2010.08.10_09.13.10%5D.jpg
 
http://www.starshare.ro/bitbucket/Centurion%202010.CAM.XVID.FEEL-FREE.avi_snapshot_01.00.02_%5B2010.08.10_09.13.13%5D.jpg
 
http://www.starshare.ro/bitbucket/Centurion%202010.CAM.XVID.FEEL-FREE.avi_snapshot_01.06.30_%5B2010.08.10_09.13.50%5D.jpg

